<svg width="28" height="24" viewBox="0 0 28 24" fill="none" xmlns="http://www.w3.org/2000/svg">
<path d="M1 4.40816H27C27.5523 4.40816 28 3.96961 28 3.42857V0.979592C28 0.438551 27.5523 0 27 0H1C0.447688 0 0 0.438551 0 0.979592V3.42857C0 3.96961 0.447688 4.40816 1 4.40816ZM1 14.2041H27C27.5523 14.2041 28 13.7655 28 13.2245V10.7755C28 10.2345 27.5523 9.79592 27 9.79592H1C0.447688 9.79592 0 10.2345 0 10.7755V13.2245C0 13.7655 0.447688 14.2041 1 14.2041ZM1 24H27C27.5523 24 28 23.5614 28 23.0204V20.5714C28 20.0304 27.5523 19.5918 27 19.5918H1C0.447688 19.5918 0 20.0304 0 20.5714V23.0204C0 23.5614 0.447688 24 1 24Z" fill="#76B72A"/>
</svg>
