<svg width="32" height="36" viewBox="0 0 32 36" fill="none" xmlns="http://www.w3.org/2000/svg">
<path d="M7.85714 4.5V5.5H6.85714H3.42857C2.07309 5.5 0.999998 6.57879 0.999998 7.875V32.625C0.999998 33.9212 2.07309 35 3.42857 35H28.5714C29.9269 35 31 33.9212 31 32.625V7.875C31 6.57879 29.9269 5.5 28.5714 5.5H25.1429H24.1429V4.5V1H21.5714V4.5V5.5H20.5714H11.4286H10.4286V4.5V1H7.85714V4.5ZM28.5714 10.25H29.5714V11.25V32.2031C29.5714 33.0022 28.916 33.625 28.1429 33.625H3.85714C3.08405 33.625 2.42857 33.0022 2.42857 32.2031V11.25V10.25H3.42857H28.5714Z" fill="#76B72A" stroke="#76B72A" stroke-width="2"/>
</svg>
