<svg width="393" height="369" viewBox="0 0 393 369" fill="none" xmlns="http://www.w3.org/2000/svg">
<g clip-path="url(#clip0)">
<path d="M190.559 9.54687C189.438 9.82031 187.469 10.5586 186.184 11.2148C184.27 12.1719 183.313 12.9102 181.071 15.1523C179.403 16.793 177.68 18.8164 176.778 20.2109C174.454 23.8203 158.157 52.5312 95.7856 162.809C74.102 201.145 48.9184 245.715 39.8129 261.793C30.7075 277.898 22.9418 291.816 22.559 292.719C20.3989 297.832 20.5903 303.492 23.0785 308.004C23.4887 308.77 24.8285 310.355 26.0317 311.559C28.52 314.02 30.8715 315.359 34.3989 316.344L36.477 316.891L197.231 316.836L358.012 316.754L360.227 316.016C370.153 312.625 373.735 302.371 368.54 292.008C367.965 290.832 343.957 248.805 315.192 198.574C286.426 148.371 252.082 88.4062 238.875 65.3281C225.641 42.25 214.02 22.125 213.008 20.6211C209.782 15.7812 205.68 12.1172 201.551 10.4219C198.133 9 194.114 8.67187 190.559 9.54687ZM234.5 102.789C256.184 140.605 289.707 199.121 308.985 232.809L344.067 294.059L269.911 294.141C229.114 294.168 162.34 294.168 121.516 294.141L47.2778 294.059L92.8325 213.531C180.004 59.3945 194.688 33.5273 194.934 33.8281C195.043 33.9375 212.844 64.9727 234.5 102.789Z" fill="#F30B03"/>
<path d="M192.992 101.586C192.609 101.668 191.324 101.969 190.148 102.269C179.484 104.949 170.844 115.23 170.844 125.156C170.844 126.414 171.445 132.102 172.211 137.762C172.949 143.422 175.301 161.195 177.406 177.301C182.902 219.273 182.848 218.781 183.312 220.531C184.461 225.043 187.168 228.652 190.723 230.402C192.555 231.305 193.074 231.441 195.316 231.523C199.473 231.715 202.043 230.703 204.832 227.805C207.539 224.934 208.77 221.68 209.645 215.117C209.945 212.82 211.312 202.484 212.68 192.121C214.02 181.785 216.262 164.887 217.602 154.523C218.969 144.187 220.336 133.852 220.637 131.555C221.293 126.578 221.32 123.215 220.746 120.973C218.504 112.141 210.902 104.594 201.797 102.215C199.746 101.668 194.523 101.312 192.992 101.586Z" fill="#F30B03"/>
<path d="M193.868 241.996C184.434 243.199 177.625 252.141 178.774 261.848C179.321 266.387 181.125 270.078 184.352 273.059C187.469 275.984 190.832 277.434 195.043 277.707C200.157 278.008 204.231 276.422 208.032 272.594C211.696 268.93 213.282 265.129 213.309 259.879C213.336 256.707 212.954 254.875 211.723 252.223C208.442 245.086 201.36 241.039 193.868 241.996Z" fill="#F30B03"/>
</g>
<path d="M1.96 335.828H17.976V354H13.608V338.908H6.328V354H1.96V335.828ZM26.7096 335.828H32.0296L38.5816 354H34.1576L32.5336 349.212H25.8976L24.3016 354H19.9896L26.7096 335.828ZM31.5816 346.3L29.2856 339.468H29.1736L26.8776 346.3H31.5816ZM40.5967 335.828H44.9647V343.108H52.6927V335.828H57.0607V354H52.6927V346.216H44.9647V354H40.5967V335.828ZM59.4278 350.892H59.8198C60.5851 350.892 61.2011 350.603 61.6678 350.024C62.1531 349.427 62.5265 348.344 62.7878 346.776C63.0491 345.208 63.1798 342.987 63.1798 340.112V335.828H76.3958V350.892H79.0558V358.228H75.1358V354H63.3478V358.228H59.4278V350.892ZM72.0278 350.92V338.908H67.0998V341.148C67.0998 345.871 66.4931 349.128 65.2798 350.92H72.0278ZM81.6397 335.828H95.4997V338.936H86.0077V343.108H94.5757V346.216H86.0077V350.892H95.7797V354H81.6397V335.828ZM98.7295 335.828H104.946L109.426 348.82L113.85 335.828H119.702V354H115.754V340.56H115.67L111.078 354H107.578L102.846 340.56H102.734V354H98.7295V335.828ZM123.612 335.828H127.98V348.26L135.82 335.828H140.188V354H135.82V341.372L127.98 354H123.612V335.828ZM147.48 346.944C146.304 346.795 145.427 346.421 144.848 345.824C144.269 345.227 143.98 344.377 143.98 343.276V339.664C143.98 338.283 144.521 337.303 145.604 336.724C146.687 336.127 148.441 335.828 150.868 335.828H158.904V354H154.536V347.28H151.96L147.704 354H142.72L147.48 346.944ZM154.536 344.396V338.936H150.924C149.953 338.936 149.263 339.067 148.852 339.328C148.46 339.571 148.264 340.028 148.264 340.7V342.408C148.264 343.192 148.451 343.724 148.824 344.004C149.197 344.265 149.897 344.396 150.924 344.396H154.536ZM169.276 335.828H173.644V342.996C174.466 342.996 175.128 342.847 175.632 342.548C176.136 342.231 176.687 341.633 177.284 340.756L180.7 335.828H185.6L181.68 341.288C181.083 342.128 180.532 342.772 180.028 343.22C179.543 343.649 178.936 344.004 178.208 344.284V344.34C179.142 344.564 179.916 344.965 180.532 345.544C181.167 346.123 181.783 346.963 182.38 348.064L185.6 354H180.7L177.732 348.652C177.34 347.943 176.958 347.411 176.584 347.056C176.23 346.683 175.828 346.431 175.38 346.3C174.932 346.169 174.354 346.104 173.644 346.104V354H169.276V335.828ZM195.828 354.28C194.82 354.28 193.887 354.215 193.028 354.084C192.188 353.953 191.311 353.729 190.396 353.412C189.407 353.076 188.632 352.535 188.072 351.788C187.512 351.023 187.232 350.099 187.232 349.016V341.064C187.232 340.168 187.428 339.365 187.82 338.656C188.231 337.947 188.753 337.387 189.388 336.976C189.948 336.621 190.639 336.323 191.46 336.08C192.281 335.837 193.047 335.688 193.756 335.632C194.409 335.576 195.1 335.548 195.828 335.548C196.687 335.548 197.433 335.585 198.068 335.66C198.703 335.716 199.412 335.847 200.196 336.052C201.092 336.313 201.829 336.631 202.408 337.004C202.987 337.377 203.472 337.9 203.864 338.572C204.275 339.263 204.48 340.093 204.48 341.064V349.016C204.48 350.024 204.209 350.892 203.668 351.62C203.145 352.348 202.417 352.899 201.484 353.272C199.804 353.944 197.919 354.28 195.828 354.28ZM195.884 351.172C196.5 351.172 197.013 351.153 197.424 351.116C197.853 351.06 198.292 350.967 198.74 350.836C199.188 350.705 199.524 350.491 199.748 350.192C199.991 349.875 200.112 349.483 200.112 349.016V341.036C200.112 340.177 199.767 339.571 199.076 339.216C198.385 338.843 197.312 338.656 195.856 338.656C194.4 338.656 193.327 338.833 192.636 339.188C191.945 339.543 191.6 340.159 191.6 341.036V349.016C191.6 349.483 191.721 349.875 191.964 350.192C192.207 350.491 192.561 350.705 193.028 350.836C193.476 350.967 193.905 351.06 194.316 351.116C194.745 351.153 195.268 351.172 195.884 351.172ZM207.995 335.828H215.275C217.048 335.828 218.448 335.949 219.475 336.192C220.52 336.435 221.276 336.864 221.743 337.48C222.228 338.077 222.471 338.917 222.471 340V343.444C222.471 344.639 222.21 345.572 221.687 346.244C221.183 346.916 220.371 347.392 219.251 347.672C218.15 347.952 216.656 348.092 214.771 348.092H212.363V354H207.995V335.828ZM215.135 345.096C216.274 345.096 217.076 344.965 217.543 344.704C218.01 344.424 218.243 343.957 218.243 343.304V340.392C218.243 339.795 218.019 339.403 217.571 339.216C217.142 339.029 216.311 338.936 215.079 338.936H212.363V345.096H215.135ZM233.754 354.28C232.746 354.28 231.813 354.215 230.954 354.084C230.114 353.953 229.237 353.729 228.322 353.412C227.333 353.076 226.558 352.535 225.998 351.788C225.438 351.023 225.158 350.099 225.158 349.016V341.064C225.158 340.168 225.354 339.365 225.746 338.656C226.157 337.947 226.679 337.387 227.314 336.976C227.874 336.621 228.565 336.323 229.386 336.08C230.207 335.837 230.973 335.688 231.682 335.632C232.335 335.576 233.026 335.548 233.754 335.548C234.613 335.548 235.359 335.585 235.994 335.66C236.629 335.716 237.338 335.847 238.122 336.052C239.018 336.313 239.755 336.631 240.334 337.004C240.913 337.377 241.398 337.9 241.79 338.572C242.201 339.263 242.406 340.093 242.406 341.064V349.016C242.406 350.024 242.135 350.892 241.594 351.62C241.071 352.348 240.343 352.899 239.41 353.272C237.73 353.944 235.845 354.28 233.754 354.28ZM233.81 351.172C234.426 351.172 234.939 351.153 235.35 351.116C235.779 351.06 236.218 350.967 236.666 350.836C237.114 350.705 237.45 350.491 237.674 350.192C237.917 349.875 238.038 349.483 238.038 349.016V341.036C238.038 340.177 237.693 339.571 237.002 339.216C236.311 338.843 235.238 338.656 233.782 338.656C232.326 338.656 231.253 338.833 230.562 339.188C229.871 339.543 229.526 340.159 229.526 341.036V349.016C229.526 349.483 229.647 349.875 229.89 350.192C230.133 350.491 230.487 350.705 230.954 350.836C231.402 350.967 231.831 351.06 232.242 351.116C232.671 351.153 233.194 351.172 233.81 351.172ZM245.921 335.828H250.289V343.108H258.017V335.828H262.385V354H258.017V346.216H250.289V354H245.921V335.828ZM274.496 354.28C273.488 354.28 272.555 354.215 271.696 354.084C270.856 353.953 269.979 353.729 269.064 353.412C268.075 353.076 267.3 352.535 266.74 351.788C266.18 351.023 265.9 350.099 265.9 349.016V341.064C265.9 340.168 266.096 339.365 266.488 338.656C266.899 337.947 267.421 337.387 268.056 336.976C268.616 336.621 269.307 336.323 270.128 336.08C270.949 335.837 271.715 335.688 272.424 335.632C273.077 335.576 273.768 335.548 274.496 335.548C275.355 335.548 276.101 335.585 276.736 335.66C277.371 335.716 278.08 335.847 278.864 336.052C279.76 336.313 280.497 336.631 281.076 337.004C281.655 337.377 282.14 337.9 282.532 338.572C282.943 339.263 283.148 340.093 283.148 341.064V349.016C283.148 350.024 282.877 350.892 282.336 351.62C281.813 352.348 281.085 352.899 280.152 353.272C278.472 353.944 276.587 354.28 274.496 354.28ZM274.552 351.172C275.168 351.172 275.681 351.153 276.092 351.116C276.521 351.06 276.96 350.967 277.408 350.836C277.856 350.705 278.192 350.491 278.416 350.192C278.659 349.875 278.78 349.483 278.78 349.016V341.036C278.78 340.177 278.435 339.571 277.744 339.216C277.053 338.843 275.98 338.656 274.524 338.656C273.068 338.656 271.995 338.833 271.304 339.188C270.613 339.543 270.268 340.159 270.268 341.036V349.016C270.268 349.483 270.389 349.875 270.632 350.192C270.875 350.491 271.229 350.705 271.696 350.836C272.144 350.967 272.573 351.06 272.984 351.116C273.413 351.153 273.936 351.172 274.552 351.172ZM286.663 335.828H294.027C295.763 335.828 297.098 335.959 298.031 336.22C298.983 336.463 299.655 336.864 300.047 337.424C300.439 337.965 300.635 338.731 300.635 339.72V341.96C300.635 342.464 300.43 342.94 300.019 343.388C299.627 343.836 299.16 344.144 298.619 344.312V344.452C299.328 344.527 299.972 344.835 300.551 345.376C301.148 345.899 301.447 346.487 301.447 347.14V349.94C301.447 351.415 300.859 352.46 299.683 353.076C298.507 353.692 296.687 354 294.223 354H286.663V335.828ZM294.027 343.22C294.718 343.22 295.231 343.164 295.567 343.052C295.903 342.94 296.127 342.763 296.239 342.52C296.37 342.259 296.435 341.885 296.435 341.4V340.504C296.435 340.075 296.379 339.757 296.267 339.552C296.155 339.328 295.922 339.169 295.567 339.076C295.231 338.983 294.69 338.936 293.943 338.936H291.031V343.22H294.027ZM294.139 350.892C295.203 350.892 295.959 350.771 296.407 350.528C296.855 350.285 297.079 349.893 297.079 349.352V347.896C297.079 347.224 296.902 346.748 296.547 346.468C296.211 346.188 295.604 346.048 294.727 346.048H291.031V350.892H294.139ZM304.437 335.828H308.805V348.26L316.645 335.828H321.013V354H316.645V341.372L308.805 354H304.437V335.828ZM324.944 335.828H332.224C333.998 335.828 335.398 335.949 336.424 336.192C337.47 336.435 338.226 336.864 338.692 337.48C339.178 338.077 339.42 338.917 339.42 340V343.444C339.42 344.639 339.159 345.572 338.636 346.244C338.132 346.916 337.32 347.392 336.2 347.672C335.099 347.952 333.606 348.092 331.72 348.092H329.312V354H324.944V335.828ZM332.084 345.096C333.223 345.096 334.026 344.965 334.492 344.704C334.959 344.424 335.192 343.957 335.192 343.304V340.392C335.192 339.795 334.968 339.403 334.52 339.216C334.091 339.029 333.26 338.936 332.028 338.936H329.312V345.096H332.084ZM345.131 354.28C344.459 354.28 343.647 354.187 342.695 354V350.808C343.087 350.901 343.47 350.985 343.843 351.06C344.235 351.135 344.608 351.172 344.963 351.172C345.486 351.172 345.924 351.051 346.279 350.808C346.652 350.547 346.97 350.155 347.231 349.632L347.623 348.82L340.595 335.828H345.159L349.723 344.956H349.835L353.447 335.828H357.843L351.263 350.416C350.666 351.76 349.91 352.74 348.995 353.356C348.08 353.972 346.792 354.28 345.131 354.28ZM367.57 354.28C366.749 354.28 366.012 354.243 365.358 354.168C364.724 354.093 364.024 353.953 363.258 353.748C362.4 353.524 361.69 353.235 361.13 352.88C360.57 352.507 360.104 351.993 359.73 351.34C359.338 350.687 359.142 349.912 359.142 349.016V341.036C359.142 337.377 361.952 335.548 367.57 335.548C369.008 335.548 370.93 335.753 373.338 336.164V339.44C371.173 338.917 369.269 338.656 367.626 338.656C366.936 338.656 366.394 338.675 366.002 338.712C365.629 338.749 365.237 338.843 364.826 338.992C363.949 339.291 363.51 339.953 363.51 340.98V348.708C363.51 350.351 365.013 351.172 368.018 351.172C369.306 351.172 371.117 350.901 373.45 350.36V353.664C371.453 354.075 369.493 354.28 367.57 354.28ZM381.057 335.828H386.377L392.929 354H388.505L386.881 349.212H380.245L378.649 354H374.337L381.057 335.828ZM385.929 346.3L383.633 339.468H383.521L381.225 346.3H385.929Z" fill="black"/>
<defs>
<clipPath id="clip0">
<rect x="21" y="9" width="350" height="307.891" fill="white"/>
</clipPath>
</defs>
</svg>
