<svg width="81" height="83" viewBox="0 0 81 83" fill="none" xmlns="http://www.w3.org/2000/svg">
<g clip-path="url(#clip0)">
<path d="M-43.5105 83V79.8313C-43.5105 68.6228 -39.1359 58.0764 -31.2335 50.0838C-23.331 42.1385 -12.8415 37.7402 -1.64641 37.7402H-1.59933H1.50519H1.55222C12.7003 37.7402 23.1899 42.1385 31.1394 50.0838C39.0418 58.0291 43.4163 68.5755 43.4163 79.8313V83H81V79.8313C81 58.5493 72.7213 38.4969 57.716 23.4103C42.7108 8.32366 22.7665 1.37558e-05 1.59925 1.37558e-05H1.55222H-1.5523H-1.59933C-22.7666 1.37558e-05 -42.7109 8.32366 -57.7161 23.4103C-72.7213 38.4969 -81.0001 58.5493 -81.0001 79.8313V83H-43.5105Z" fill="#414042"/>
<path d="M-1.64594 17.3094H1.50566C2.07012 17.3094 2.63457 17.3094 3.19903 17.3094L3.10498 20.4308C2.58755 20.4308 2.02308 20.4308 1.50566 20.4308H-1.64594C-3.15117 20.4308 -4.65639 20.478 -6.11458 20.6199L-6.34977 17.4986C-4.79751 17.3567 -3.24524 17.3094 -1.64594 17.3094V17.3094ZM12.7478 18.3498C15.8994 18.9174 19.0039 19.7687 22.0614 20.8091L21.0266 23.7886C18.1572 22.7954 15.1938 21.9914 12.1833 21.4239L12.7478 18.3498ZM-15.8515 18.9647L-15.1459 22.0387C-18.1093 22.7481 -21.0257 23.6467 -23.848 24.8291L-25.024 21.8969C-22.0606 20.6672 -18.956 19.6741 -15.8515 18.9647V18.9647ZM30.8105 24.6872C33.6328 26.2006 36.3611 27.9504 38.9011 29.8895L37.0196 32.396C34.5736 30.5516 31.9865 28.8963 29.3053 27.4302L30.8105 24.6872ZM-33.632 26.2006L-32.0327 28.8963C-34.6198 30.457 -37.1598 32.2541 -39.4647 34.1931L-41.4874 31.7812C-38.9944 29.7476 -36.3602 27.8558 -33.632 26.2006V26.2006ZM46.145 36.3214C48.3558 38.6387 50.4255 41.1453 52.3071 43.7464L49.767 45.5436C48.0266 43.037 46.0509 40.6724 43.9342 38.4969L46.145 36.3214ZM-48.355 38.5442L-46.0031 40.6251C-48.0257 42.9425 -49.8602 45.4017 -51.5066 47.9556L-54.1407 46.253C-52.4003 43.5573 -50.4717 40.9561 -48.355 38.5442ZM57.199 52.0228C58.6102 54.9077 59.8332 57.9345 60.821 60.9613L57.8576 61.9071C56.9638 58.9749 55.7879 56.1373 54.4238 53.3943L57.199 52.0228ZM-58.6564 54.7658L-55.787 56.0427C-57.01 58.833 -57.9979 61.7652 -58.7975 64.6974L-61.8079 63.8934C-61.0083 60.7721 -59.9264 57.698 -58.6564 54.7658V54.7658ZM62.9847 70.3726C63.4551 73.494 63.6903 76.6627 63.6903 79.8313V80.0205H60.5858V79.8313C60.5858 76.8045 60.3506 73.8251 59.9272 70.8456L62.9847 70.3726ZM-63.5013 73.3994L-60.3968 73.7305C-60.5849 75.7641 -60.7261 77.7977 -60.7261 79.8313V82.9527H-63.8306V79.784C-63.8306 77.7031 -63.7365 75.5276 -63.5013 73.3994Z" fill="white"/>
<path d="M-1.64641 34.0986H1.50519C26.5766 34.0986 46.9912 54.6239 46.9912 79.8313L46.8501 83L45.8153 82.9527L45.9564 79.7841C45.9564 55.1915 26.0121 35.139 1.50519 35.139H-1.64641C-26.1534 35.139 -46.0976 55.1915 -46.0976 79.8313L-45.9565 82.9527L-46.9913 83L-47.1324 79.8313C-47.1324 54.6239 -26.7649 34.0986 -1.64641 34.0986Z" fill="white"/>
<path d="M-1.64719 2.60114H1.50442C21.9661 2.60114 41.2518 10.641 55.7866 25.2547C70.3214 39.8684 78.318 59.2587 78.318 79.8313L78.365 82.9527H77.3301L77.2831 79.784C77.2831 59.4479 69.3807 40.3413 55.081 25.9641C40.7343 11.5396 21.7309 3.6416 1.55144 3.6416H-1.6001C-21.7795 3.6416 -40.8301 11.5869 -55.1297 25.9641C-69.4764 40.3886 -77.3318 59.4952 -77.3318 79.784L-77.3789 82.9527H-78.4137L-78.3667 79.784C-78.3667 59.2114 -70.3701 39.8211 -55.8353 25.2074C-41.4416 10.6883 -22.1559 2.60114 -1.64719 2.60114Z" fill="white"/>
</g>
<defs>
<clipPath id="clip0">
<rect width="162" height="83" fill="white" transform="translate(81 83) rotate(-180)"/>
</clipPath>
</defs>
</svg>
