<svg width="38" height="283" viewBox="0 0 38 283" fill="none" xmlns="http://www.w3.org/2000/svg">
<path d="M0 136.476L0 282.429H38L38 136.476H0Z" fill="#414042"/>
<path d="M34.2856 136.476L34.2856 282.429H35.3333L35.3333 136.476H34.2856Z" fill="white"/>
<path d="M2.66663 136.476L2.66663 282.429H3.71424L3.71424 136.476H2.66663Z" fill="white"/>
<path d="M20.5715 278.953H17.4286V269.476H20.5715V278.953ZM20.5715 259.953H17.4286V250.476H20.5715V259.953ZM20.5715 240.953H17.4286V231.476H20.5715V240.953ZM20.5715 222H17.4286V212.524H20.5715V222ZM20.5715 203H17.4286V193.476H20.5715L20.5715 203ZM20.5715 184H17.4286V174.524H20.5715V184ZM20.5715 165H17.4286V155.524H20.5715V165ZM20.5715 146H17.4286V136.524H20.5715V146Z" fill="white"/>
<path d="M0 -0.000183105L0 145.952H38L38 -0.000183105H0Z" fill="#414042"/>
<path d="M2.66663 -0.000183105L2.66663 145.952H3.71424L3.71424 -0.000183105H2.66663Z" fill="white"/>
<path d="M34.2856 -0.000183105L34.2856 145.952H35.3333L35.3333 -0.000183105H34.2856Z" fill="white"/>
<path d="M17.4286 3.47611H20.5715V12.9999H17.4286V3.47611ZM17.4286 22.4761H20.5715V31.9523H17.4286V22.4761ZM17.4286 41.4761H20.5715V50.9523H17.4286V41.4761ZM17.4286 60.4761H20.5715L20.5715 69.9523H17.4286V60.4761ZM17.4286 79.4761H20.5715V88.9523H17.4286V79.4761ZM17.4286 98.4761H20.5715V107.952H17.4286V98.4761ZM17.4286 117.476H20.5715V126.952H17.4286V117.476ZM17.4286 136.428H20.5715V145.905H17.4286V136.428Z" fill="white"/>
</svg>
